<svg width="190" height="40" viewBox="0 0 190 40" fill="none" xmlns="http://www.w3.org/2000/svg">
<path d="M0 20C0 8.95431 8.95431 0 20 0H170C181.046 0 190 8.95431 190 20C190 31.0457 181.046 40 170 40H20C8.95431 40 0 31.0457 0 20Z" fill="white"/>
<path d="M65.32 20.42H66.9V23.21C66.5267 23.4833 66.0667 23.7067 65.52 23.88C64.98 24.0467 64.4667 24.13 63.98 24.13C63.2733 24.13 62.6333 23.9733 62.06 23.66C61.4933 23.34 61.0467 22.9033 60.72 22.35C60.3933 21.7967 60.23 21.1767 60.23 20.49C60.23 19.81 60.3967 19.1967 60.73 18.65C61.07 18.0967 61.5333 17.6633 62.12 17.35C62.7133 17.0367 63.3733 16.88 64.1 16.88C64.62 16.88 65.14 16.9767 65.66 17.17C66.18 17.3567 66.62 17.61 66.98 17.93L65.94 19.21C65.6867 18.97 65.3933 18.78 65.06 18.64C64.7333 18.5 64.41 18.43 64.09 18.43C63.7167 18.43 63.38 18.52 63.08 18.7C62.78 18.88 62.5433 19.1267 62.37 19.44C62.1967 19.7533 62.11 20.1033 62.11 20.49C62.11 20.8833 62.1967 21.24 62.37 21.56C62.5433 21.8733 62.7833 22.12 63.09 22.3C63.3967 22.48 63.7367 22.57 64.11 22.57C64.4633 22.57 64.8667 22.4567 65.32 22.23V20.42ZM68.1116 16.99H73.6416V18.45H69.9416V19.76H73.2816V21.21L69.9416 21.22V22.54H73.7416V24H68.1116V16.99ZM74.2497 16.99H80.2597V18.5H78.1597V24H76.3297V18.5H74.2497V16.99ZM88.0491 19.1C87.6757 18.88 87.2757 18.7 86.8491 18.56C86.4291 18.42 86.0757 18.35 85.7891 18.35C85.5624 18.35 85.3824 18.3933 85.2491 18.48C85.1224 18.56 85.0591 18.68 85.0591 18.84C85.0591 18.9933 85.1157 19.1233 85.2291 19.23C85.3424 19.33 85.4824 19.4133 85.6491 19.48C85.8157 19.54 86.0624 19.62 86.3891 19.72C86.8757 19.86 87.2757 20 87.5891 20.14C87.9091 20.28 88.1824 20.4967 88.4091 20.79C88.6357 21.0767 88.7491 21.4533 88.7491 21.92C88.7491 22.3867 88.6257 22.7867 88.3791 23.12C88.1324 23.4467 87.7924 23.6933 87.3591 23.86C86.9324 24.0267 86.4557 24.11 85.9291 24.11C85.3491 24.11 84.7691 24.01 84.1891 23.81C83.6157 23.6033 83.1191 23.3233 82.6991 22.97L83.4091 21.54C83.7624 21.8533 84.1791 22.11 84.6591 22.31C85.1457 22.51 85.5757 22.61 85.9491 22.61C86.2224 22.61 86.4357 22.56 86.5891 22.46C86.7491 22.36 86.8291 22.2133 86.8291 22.02C86.8291 21.86 86.7691 21.7267 86.6491 21.62C86.5357 21.5133 86.3891 21.43 86.2091 21.37C86.0357 21.3033 85.7891 21.2267 85.4691 21.14C84.9891 21.0067 84.5924 20.8733 84.2791 20.74C83.9657 20.6 83.6957 20.3933 83.4691 20.12C83.2491 19.84 83.1391 19.47 83.1391 19.01C83.1391 18.5767 83.2524 18.1967 83.4791 17.87C83.7124 17.5433 84.0391 17.2933 84.4591 17.12C84.8857 16.94 85.3791 16.85 85.9391 16.85C86.4457 16.85 86.9457 16.9233 87.4391 17.07C87.9324 17.21 88.3657 17.4 88.7391 17.64L88.0491 19.1ZM89.0739 16.99H95.0839V18.5H92.9839V24H91.1539V18.5H89.0739V16.99ZM100.225 24L99.7445 22.76H96.7145L96.2245 24H94.3445L97.3545 16.99H99.2345L102.175 24H100.225ZM97.2645 21.36H99.2045L98.2445 18.86L97.2645 21.36ZM107.019 24L105.999 22.06H105.959H104.639V24H102.809V16.99H105.959C106.886 16.99 107.602 17.2067 108.109 17.64C108.622 18.0667 108.879 18.67 108.879 19.45C108.879 19.9767 108.772 20.4333 108.559 20.82C108.346 21.2 108.036 21.4967 107.629 21.71L109.089 24H107.019ZM104.639 20.6H105.969C106.342 20.6 106.629 20.5067 106.829 20.32C107.036 20.1333 107.139 19.8633 107.139 19.51C107.139 19.17 107.036 18.91 106.829 18.73C106.629 18.5433 106.342 18.45 105.969 18.45H104.639V20.6ZM109.435 16.99H115.445V18.5H113.345V24H111.515V18.5H109.435V16.99ZM116.188 16.99H121.718V18.45H118.018V19.76H121.358V21.21L118.018 21.22V22.54H121.818V24H116.188V16.99ZM125.956 16.99C126.689 16.99 127.336 17.1367 127.896 17.43C128.463 17.7233 128.903 18.1367 129.216 18.67C129.529 19.1967 129.686 19.8033 129.686 20.49C129.686 21.1767 129.526 21.7867 129.206 22.32C128.893 22.8533 128.446 23.2667 127.866 23.56C127.293 23.8533 126.633 24 125.886 24H122.936V16.99H125.956ZM126.006 22.52C126.359 22.52 126.673 22.4367 126.946 22.27C127.219 22.1033 127.433 21.8667 127.586 21.56C127.739 21.2533 127.816 20.9033 127.816 20.51C127.816 20.11 127.733 19.7567 127.566 19.45C127.406 19.1433 127.183 18.9067 126.896 18.74C126.609 18.5667 126.283 18.48 125.916 18.48H124.766V22.52H126.006Z" fill="#30363C"/>
<path d="M161.578 24.3594L166.172 19.7656L161.578 15.1719L162.984 13.7656L168.984 19.7656L162.984 25.7656L161.578 24.3594Z" fill="#30363D"/>
</svg>
